<svg xmlns="http://www.w3.org/2000/svg" viewBox="0 0 25.09 32"><defs><style>.cls-1{fill:#83c4be;}.cls-2{fill:#f4dc8a;}.cls-3{fill:#a95d35;}</style></defs><g id="Layer_2" data-name="Layer 2"><g id="Layer_1-2" data-name="Layer 1"><g id="nest_lock_black"><path d="M17.29,12.15c0-.05,0-.09,0-.14l-.37.21-.24.12.24-.12L17.3,12l0-.2a.8.8,0,0,0,0-.15,8.48,8.48,0,0,0,0-2.25,7.52,7.52,0,0,0-.46-1.75,4.2,4.2,0,0,0-1-1.51,2.43,2.43,0,0,0-.83-.54A2.2,2.2,0,0,0,14,5.5l-.14,0h-.06a3.31,3.31,0,0,0-.75.25,5.85,5.85,0,0,0-1.53,1.07,10.05,10.05,0,0,0-1.12,1.31,8.76,8.76,0,0,0-.79,1.36l0,.09,0,.11,0,0-.18.47a5.67,5.67,0,0,0-.28,1.27,3.92,3.92,0,0,0,.15,1.56,3.63,3.63,0,0,0,.37.83,3.89,3.89,0,0,0,1.54,1.39.38.38,0,0,0,.1,0l0,0,.18.08a5.09,5.09,0,0,0,1.21.35,4.49,4.49,0,0,0,1.71-.08,3.67,3.67,0,0,0,1.48-.79,3.73,3.73,0,0,0,.86-1.08,5,5,0,0,0,.34-.79A5.58,5.58,0,0,0,17.29,12.15ZM16,13.58a2.9,2.9,0,0,1-1.34,1.23,3.36,3.36,0,0,1-1.77.24,4.08,4.08,0,0,1-.77-.17h0l-.21-.09a3.2,3.2,0,0,1-1.63-1.29,2.91,2.91,0,0,1-.42-1.44A4,4,0,0,1,10,10.64a.19.19,0,0,0,0-.08l.07-.15A7.12,7.12,0,0,1,10.77,9l0,0h0l.33-.48a7.32,7.32,0,0,1,1.6-1.64,3.49,3.49,0,0,1,1.11-.55c.13,0,.27,0,.4-.08h.22a1.46,1.46,0,0,1,.72.26,2.37,2.37,0,0,1,.7.78,5.21,5.21,0,0,1,.53,1.32,8,8,0,0,1,.27,1.94s0,.06,0,.08h0c0,.05,0,.1,0,.14a8.93,8.93,0,0,1-.08,1l-.12.62a.13.13,0,0,0,0,.06h0l0,.06A4,4,0,0,1,16,13.58Z"/><path class="cls-1" d="M10,10.56l.07-.15A7.12,7.12,0,0,1,10.77,9l0,0,.33-.48a7.32,7.32,0,0,1,1.6-1.64,3.49,3.49,0,0,1,1.11-.55c.13,0,.27,0,.4-.08h.22a1.46,1.46,0,0,1,.72.26,2.37,2.37,0,0,1,.7.78,5.21,5.21,0,0,1,.53,1.32,8,8,0,0,1,.27,1.94s0,.06,0,.08,0,.1,0,.14a8.93,8.93,0,0,1-.08,1l-.12.62a.13.13,0,0,0,0,.06l0,.06A4,4,0,0,1,16,13.58a2.9,2.9,0,0,1-1.34,1.23,3.36,3.36,0,0,1-1.77.24,4.08,4.08,0,0,1-.77-.17h0l-.21-.09a3.2,3.2,0,0,1-1.63-1.29,2.91,2.91,0,0,1-.42-1.44A4,4,0,0,1,10,10.64.19.19,0,0,0,10,10.56ZM13.36,14h.16l.25,0a2.72,2.72,0,0,0,.94-.45,2.52,2.52,0,0,0,.61-.61c.1-.14.19-.29.28-.44a.38.38,0,0,0-.15-.52.37.37,0,0,0-.51.17,2.71,2.71,0,0,1-.3.45,2,2,0,0,1-1.24.71.38.38,0,0,0-.31.35A.4.4,0,0,0,13.36,14Z"/><path d="M13.36,14a.4.4,0,0,1-.27-.39.38.38,0,0,1,.31-.35,2,2,0,0,0,1.24-.71,2.71,2.71,0,0,0,.3-.45.37.37,0,0,1,.51-.17.38.38,0,0,1,.15.52c-.09.15-.18.3-.28.44a2.52,2.52,0,0,1-.61.61,2.72,2.72,0,0,1-.94.45l-.25,0Z"/><path d="M12,13.53a1.12,1.12,0,0,0,0-.13l-.24.35L11.6,14l.15-.22L12,13.4l-.05-.19a.83.83,0,0,1,0-.15,9.5,9.5,0,0,0-1-2A7.7,7.7,0,0,0,9.7,9.68a4.33,4.33,0,0,0-1.52-.93,2.19,2.19,0,0,0-1-.12A2.08,2.08,0,0,0,6.2,9l-.11.09,0,0a3.77,3.77,0,0,0-.57.56,5.45,5.45,0,0,0-.89,1.64A7.81,7.81,0,0,0,4.14,13,9.21,9.21,0,0,0,4,14.53s0,.06,0,.09v.13a.43.43,0,0,0,0,.05c0,.17,0,.34,0,.51a5,5,0,0,0,.31,1.26,4,4,0,0,0,.81,1.33,3.33,3.33,0,0,0,.71.59,3.86,3.86,0,0,0,2,.57L8,19a.05.05,0,0,0,0,0h.19a5.29,5.29,0,0,0,1.24-.22A4.29,4.29,0,0,0,11,18a3.49,3.49,0,0,0,1-1.35,3.78,3.78,0,0,0,.3-1.36,6.19,6.19,0,0,0,0-.86A7.21,7.21,0,0,0,12,13.53Zm-.53,1.86a2.92,2.92,0,0,1-.67,1.69,3.33,3.33,0,0,1-1.47,1,5.09,5.09,0,0,1-.77.19h0l-.23,0a3.29,3.29,0,0,1-2-.45,2.81,2.81,0,0,1-1-1.1,4.39,4.39,0,0,1-.44-1.37.19.19,0,0,0,0-.08,1,1,0,0,0,0-.17,7.21,7.21,0,0,1,0-1.54v0h0c0-.19,0-.39.08-.58a6.94,6.94,0,0,1,.72-2.17,3.32,3.32,0,0,1,.75-1c.1-.09.21-.16.32-.25l0,0,.16-.07a1.42,1.42,0,0,1,.76-.09,2.25,2.25,0,0,1,1,.4,4.77,4.77,0,0,1,1.06.94,8.48,8.48,0,0,1,1.1,1.63.43.43,0,0,0,0,.07h0s0,.09,0,.13a7.55,7.55,0,0,1,.39,1c.06.2.11.4.16.61,0,0,0,0,0,0h0v.07A4.32,4.32,0,0,1,11.51,15.39Z"/><path class="cls-2" d="M4.83,15.3a1,1,0,0,0,0-.17,7.21,7.21,0,0,1,0-1.54v0c0-.19,0-.39.08-.58a6.94,6.94,0,0,1,.72-2.17,3.32,3.32,0,0,1,.75-1c.1-.09.21-.16.32-.25l0,0,.16-.07a1.42,1.42,0,0,1,.76-.09,2.25,2.25,0,0,1,1,.4,4.77,4.77,0,0,1,1.06.94,8.48,8.48,0,0,1,1.1,1.63.43.43,0,0,0,0,.07s0,.09,0,.13a7.55,7.55,0,0,1,.39,1c.06.2.11.4.16.61,0,0,0,0,0,0v.07a4.32,4.32,0,0,1,.07,1.14,2.92,2.92,0,0,1-.67,1.69,3.33,3.33,0,0,1-1.47,1,5.09,5.09,0,0,1-.77.19h0l-.23,0a3.29,3.29,0,0,1-2-.45,2.81,2.81,0,0,1-1-1.1,4.39,4.39,0,0,1-.44-1.37A.19.19,0,0,0,4.83,15.3Zm4.51,1.64.15-.07a1.56,1.56,0,0,0,.2-.16,2.83,2.83,0,0,0,.65-.81,2.66,2.66,0,0,0,.28-.82,4.36,4.36,0,0,0,.05-.52.37.37,0,0,0-.36-.4.38.38,0,0,0-.39.38,2.48,2.48,0,0,1-.06.54,2,2,0,0,1-.81,1.18.36.36,0,0,0-.12.44A.38.38,0,0,0,9.34,16.94Z"/><path d="M9.34,16.94a.38.38,0,0,1-.41-.24.36.36,0,0,1,.12-.44,2,2,0,0,0,.81-1.18,2.48,2.48,0,0,0,.06-.54.38.38,0,0,1,.39-.38.37.37,0,0,1,.36.4,4.36,4.36,0,0,1-.05.52,2.66,2.66,0,0,1-.28.82,2.83,2.83,0,0,1-.65.81,1.56,1.56,0,0,1-.2.16Z"/><path d="M21,15.91a.65.65,0,0,0,0-.14L20.7,16l-.22.16L20.7,16l.34-.25v-.35a8.83,8.83,0,0,0-.32-2.23A7.71,7.71,0,0,0,20,11.51a4.18,4.18,0,0,0-1.14-1.37,2.25,2.25,0,0,0-2-.4l-.13.06s0,0,0,0a3.42,3.42,0,0,0-.72.35,6.08,6.08,0,0,0-1.37,1.26,9.29,9.29,0,0,0-1.54,2.9s0,.06,0,.09l0,.12,0,.05c0,.16-.08.33-.11.49a5.16,5.16,0,0,0-.11,1.3,3.84,3.84,0,0,0,.35,1.52,3.48,3.48,0,0,0,.48.78,3.89,3.89,0,0,0,1.7,1.17l.11,0,0,0,.19.05a4.39,4.39,0,0,0,1.25.18,4.2,4.2,0,0,0,1.68-.3,3.69,3.69,0,0,0,1.37-1,4,4,0,0,0,.71-1.2,5.51,5.51,0,0,0,.23-.82A7.06,7.06,0,0,0,21,15.91ZM20,17.5a3,3,0,0,1-1.17,1.39,3.37,3.37,0,0,1-1.72.47,3.51,3.51,0,0,1-.79-.06h0L16,19.24a3.2,3.2,0,0,1-1.78-1.07,2.76,2.76,0,0,1-.61-1.36,4.35,4.35,0,0,1,0-1.44.21.21,0,0,0,0-.08,1.42,1.42,0,0,0,0-.16,7,7,0,0,1,.48-1.47l0,0h0c.08-.17.17-.34.26-.51a7.29,7.29,0,0,1,1.37-1.84,3.42,3.42,0,0,1,1-.7l.38-.13h.22a1.37,1.37,0,0,1,.75.15,2.53,2.53,0,0,1,.8.69,5.15,5.15,0,0,1,.7,1.23,8.91,8.91,0,0,1,.52,1.9.19.19,0,0,0,0,.07h0a.61.61,0,0,0,0,.14,7.31,7.31,0,0,1,.05,1c0,.21,0,.42,0,.63,0,0,0,0,0,.06h0a.14.14,0,0,0,0,.06A4.8,4.8,0,0,1,20,17.5Z"/><path class="cls-3" d="M13.64,15.29a1.42,1.42,0,0,0,0-.16,7,7,0,0,1,.48-1.47l0,0c.08-.17.17-.34.26-.51a7.29,7.29,0,0,1,1.37-1.84,3.42,3.42,0,0,1,1-.7l.38-.13h.22a1.37,1.37,0,0,1,.75.15,2.53,2.53,0,0,1,.8.69,5.15,5.15,0,0,1,.7,1.23,8.91,8.91,0,0,1,.52,1.9.19.19,0,0,0,0,.07.61.61,0,0,0,0,.14,7.31,7.31,0,0,1,.05,1c0,.21,0,.42,0,.63,0,0,0,0,0,.06a.14.14,0,0,0,0,.06A4.8,4.8,0,0,1,20,17.5a3,3,0,0,1-1.17,1.39,3.37,3.37,0,0,1-1.72.47,3.51,3.51,0,0,1-.79-.06h0L16,19.24a3.2,3.2,0,0,1-1.78-1.07,2.76,2.76,0,0,1-.61-1.36,4.35,4.35,0,0,1,0-1.44A.21.21,0,0,0,13.64,15.29Zm3.76,3,.16,0,.24-.09a2.81,2.81,0,0,0,.88-.56,2.72,2.72,0,0,0,.52-.69,3.48,3.48,0,0,0,.21-.48A.36.36,0,0,0,19.2,16a.39.39,0,0,0-.49.23,2.27,2.27,0,0,1-.23.5,2,2,0,0,1-1.14.86.38.38,0,0,0-.26.38A.4.4,0,0,0,17.4,18.28Z"/><path d="M17.4,18.28a.4.4,0,0,1-.32-.36.38.38,0,0,1,.26-.38,2,2,0,0,0,1.14-.86,2.27,2.27,0,0,0,.23-.5A.39.39,0,0,1,19.2,16a.36.36,0,0,1,.21.49,3.48,3.48,0,0,1-.21.48,2.72,2.72,0,0,1-.52.69,2.81,2.81,0,0,1-.88.56l-.24.09Z"/><path d="M25.08,17.27A1.75,1.75,0,0,0,24,15.69c0-1.91,0-3.81,0-5.72a9.59,9.59,0,0,0-.23-2.07c-1.18-5-6.62-8.44-12.49-7.83A11.91,11.91,0,0,0,4.77,2.7,9.2,9.2,0,0,0,1.19,9.94c0,1.68,0,3.37,0,5.06v.65A1.77,1.77,0,0,0,0,17.28V30.21A1.91,1.91,0,0,0,2,32h21a1.91,1.91,0,0,0,2-1.74Q25.1,23.77,25.08,17.27ZM13.8,24a.2.2,0,0,0-.12.2V26.8c0,.28-.07.35-.4.35H11.79c-.29,0-.38-.07-.38-.33V25.53h0V24.2A.16.16,0,0,0,11.3,24a2.09,2.09,0,0,1-1.23-2.31,2.38,2.38,0,0,1,2-1.77A2.52,2.52,0,0,1,15,21.75,2.1,2.1,0,0,1,13.8,24ZM4,15.45V9.88C4,6.52,6.73,3.78,10.72,3a10,10,0,0,1,1.76-.17c3.53,0,7.46,2.2,8.35,5.4A5.78,5.78,0,0,1,21,9.85c0,1.87,0,3.73,0,5.6Z"/></g></g></g></svg>