<svg xmlns="http://www.w3.org/2000/svg" viewBox="0 0 26.2 33.12"><defs><style>.cls-1{fill:#83c4be;}.cls-2{fill:#f4dc8a;}.cls-3{fill:#a95d35;}.cls-4{fill:#fff;stroke:#000;stroke-miterlimit:10;stroke-width:1.12px;}</style></defs><g id="Layer_2" data-name="Layer 2"><g id="Layer_1-2" data-name="Layer 1"><g id="nest_lock_white"><path d="M17.85,12.71a.66.66,0,0,1,0-.14l-.38.2a1.71,1.71,0,0,1-.23.13,1.71,1.71,0,0,0,.23-.13l.38-.2,0-.2,0-.15a9.41,9.41,0,0,0,0-2.25,7.52,7.52,0,0,0-.46-1.75,4.2,4.2,0,0,0-.95-1.51,2.29,2.29,0,0,0-.83-.54,2.12,2.12,0,0,0-1.06-.11l-.14,0h0a3.56,3.56,0,0,0-.76.25,6,6,0,0,0-1.52,1.07A8.64,8.64,0,0,0,11,8.71a9.35,9.35,0,0,0-.79,1.37l0,.09,0,.11a.1.1,0,0,0,0,.05l-.18.47a5.07,5.07,0,0,0-.28,1.27,4.05,4.05,0,0,0,.14,1.55,3.7,3.7,0,0,0,1.91,2.23l.11,0,0,0L12,16a4.71,4.71,0,0,0,1.22.34,4.06,4.06,0,0,0,1.7-.08,3.51,3.51,0,0,0,1.49-.78,3.64,3.64,0,0,0,.86-1.09,4.49,4.49,0,0,0,.34-.78A9,9,0,0,0,17.85,12.71Zm-1.3,1.43a3,3,0,0,1-1.35,1.23,3.31,3.31,0,0,1-1.76.24,4.36,4.36,0,0,1-.78-.17h0l-.22-.08a3.27,3.27,0,0,1-1.62-1.29,2.72,2.72,0,0,1-.42-1.44,4,4,0,0,1,.21-1.42s0,0,0-.08a.94.94,0,0,0,.06-.15,7.78,7.78,0,0,1,.68-1.39s0,0,0,0h0c.11-.16.21-.32.33-.48a7.32,7.32,0,0,1,1.6-1.64,3.52,3.52,0,0,1,1.11-.56l.4-.07H15a1.46,1.46,0,0,1,.72.26,2.28,2.28,0,0,1,.7.78A5.21,5.21,0,0,1,17,9.15a8.4,8.4,0,0,1,.27,1.94.22.22,0,0,0,0,.08h0c0,.05,0,.09,0,.14a7.27,7.27,0,0,1-.07,1c0,.21-.09.41-.13.62V13h0l0,.05A4.1,4.1,0,0,1,16.55,14.14Z"/><path class="cls-1" d="M10.59,11.12a.94.94,0,0,0,.06-.15,7.78,7.78,0,0,1,.68-1.39s0,0,0,0,.21-.32.33-.48a7.32,7.32,0,0,1,1.6-1.64,3.52,3.52,0,0,1,1.11-.56l.4-.07H15a1.46,1.46,0,0,1,.72.26,2.28,2.28,0,0,1,.7.78A5.21,5.21,0,0,1,17,9.15a8.4,8.4,0,0,1,.27,1.94.22.22,0,0,0,0,.08c0,.05,0,.09,0,.14a7.27,7.27,0,0,1-.07,1c0,.21-.09.41-.13.62V13l0,.05a4.1,4.1,0,0,1-.44,1.06,3,3,0,0,1-1.35,1.23,3.31,3.31,0,0,1-1.76.24,4.36,4.36,0,0,1-.78-.17h0l-.22-.08a3.27,3.27,0,0,1-1.62-1.29,2.72,2.72,0,0,1-.42-1.44,4,4,0,0,1,.21-1.42S10.59,11.15,10.59,11.12Zm3.33,3.45h.16l.25-.05a2.82,2.82,0,0,0,1.55-1.06,4,4,0,0,0,.27-.44.37.37,0,1,0-.65-.35,2.71,2.71,0,0,1-.3.45,2,2,0,0,1-1.24.71.37.37,0,0,0-.31.35A.38.38,0,0,0,13.92,14.57Z"/><path d="M13.92,14.57a.38.38,0,0,1-.27-.38.37.37,0,0,1,.31-.35,2,2,0,0,0,1.24-.71,2.71,2.71,0,0,0,.3-.45.37.37,0,1,1,.65.35,4,4,0,0,1-.27.44,2.82,2.82,0,0,1-1.55,1.06l-.25.05Z"/><path d="M12.6,14.09a.5.5,0,0,0,0-.13l-.24.35-.16.21.16-.21.24-.35-.05-.19a.83.83,0,0,1,0-.15,9.5,9.5,0,0,0-1-2,7.75,7.75,0,0,0-1.19-1.37,4.2,4.2,0,0,0-1.51-.93,2.22,2.22,0,0,0-1-.12,2.09,2.09,0,0,0-1,.36l-.11.09-.05,0a3.36,3.36,0,0,0-.57.56,5.78,5.78,0,0,0-.9,1.63,8.72,8.72,0,0,0-.43,1.67,9.14,9.14,0,0,0-.11,1.57s0,.06,0,.09v.12s0,0,0,.06c0,.17,0,.34.05.51A5.05,5.05,0,0,0,5,17.13a3.81,3.81,0,0,0,.81,1.33,3.38,3.38,0,0,0,.71.59,4,4,0,0,0,2,.57l.12,0H8.8a4.84,4.84,0,0,0,1.25-.23,4.11,4.11,0,0,0,1.49-.82,3.52,3.52,0,0,0,1-1.36,3.9,3.9,0,0,0,.3-1.35,6.19,6.19,0,0,0,0-.86A7.21,7.21,0,0,0,12.6,14.09ZM12.07,16a2.92,2.92,0,0,1-.67,1.69,3.29,3.29,0,0,1-1.47,1,3.42,3.42,0,0,1-.78.19l0,0H8.89a3.27,3.27,0,0,1-2-.44,2.84,2.84,0,0,1-1-1.11,4.42,4.42,0,0,1-.44-1.36.19.19,0,0,0,0-.08,1,1,0,0,0,0-.17,7.92,7.92,0,0,1,0-1.54s0,0,0,0h0l.09-.58a7.08,7.08,0,0,1,.72-2.18,3.24,3.24,0,0,1,.75-1,3.92,3.92,0,0,1,.32-.25l0,0L7.45,10a1.42,1.42,0,0,1,.76-.09,2.42,2.42,0,0,1,1,.39,5.34,5.34,0,0,1,1.06.95,8.48,8.48,0,0,1,1.1,1.63l0,.07h0s0,.09,0,.13a7.55,7.55,0,0,1,.39,1c.06.2.11.4.16.6a.14.14,0,0,0,0,.06h0v.06A4.42,4.42,0,0,1,12.07,16Z"/><path class="cls-2" d="M5.39,15.86a1,1,0,0,0,0-.17,7.92,7.92,0,0,1,0-1.54s0,0,0,0l.09-.58a7.08,7.08,0,0,1,.72-2.18,3.24,3.24,0,0,1,.75-1,3.92,3.92,0,0,1,.32-.25l0,0L7.45,10a1.42,1.42,0,0,1,.76-.09,2.42,2.42,0,0,1,1,.39,5.34,5.34,0,0,1,1.06.95,8.48,8.48,0,0,1,1.1,1.63l0,.07s0,.09,0,.13a7.55,7.55,0,0,1,.39,1c.06.2.11.4.16.6a.14.14,0,0,0,0,.06v.06A4.42,4.42,0,0,1,12.07,16a2.92,2.92,0,0,1-.67,1.69,3.29,3.29,0,0,1-1.47,1,3.42,3.42,0,0,1-.78.19l0,0H8.89a3.27,3.27,0,0,1-2-.44,2.84,2.84,0,0,1-1-1.11,4.42,4.42,0,0,1-.44-1.36A.19.19,0,0,0,5.39,15.86ZM9.9,17.49a.59.59,0,0,0,.14-.06,1.66,1.66,0,0,0,.21-.16,3,3,0,0,0,.65-.81,2.93,2.93,0,0,0,.27-.82,3.05,3.05,0,0,0,.05-.52.36.36,0,0,0-.35-.4.37.37,0,0,0-.39.37,2.14,2.14,0,0,1-.87,1.73.36.36,0,0,0-.12.44A.37.37,0,0,0,9.9,17.49Z"/><path d="M9.9,17.49a.37.37,0,0,1-.41-.23.36.36,0,0,1,.12-.44,2.14,2.14,0,0,0,.87-1.73.37.37,0,0,1,.39-.37.36.36,0,0,1,.35.4,3.05,3.05,0,0,1-.05.52,2.93,2.93,0,0,1-.27.82,3,3,0,0,1-.65.81,1.66,1.66,0,0,1-.21.16A.59.59,0,0,1,9.9,17.49Z"/><path d="M21.6,16.46a.29.29,0,0,0,0-.13l-.34.25-.21.15.21-.15.34-.25v-.2a.92.92,0,0,0,0-.16,8.34,8.34,0,0,0-.33-2.22,7.22,7.22,0,0,0-.68-1.68,4.31,4.31,0,0,0-1.14-1.37,2.45,2.45,0,0,0-.89-.43,2.28,2.28,0,0,0-1.07,0l-.13,0h-.05a2.82,2.82,0,0,0-.72.35A5.65,5.65,0,0,0,15.23,12a9.13,9.13,0,0,0-.94,1.44,9.33,9.33,0,0,0-.6,1.46s0,.06,0,.09l0,.11,0,0c0,.17-.08.33-.11.5a5.67,5.67,0,0,0-.12,1.3,4.26,4.26,0,0,0,.35,1.52,3.53,3.53,0,0,0,.49.78,3.89,3.89,0,0,0,1.7,1.17l.11,0,0,0,.19.06a4.7,4.7,0,0,0,1.24.18,4.25,4.25,0,0,0,1.69-.3,3.69,3.69,0,0,0,1.37-1,4,4,0,0,0,.71-1.2,5.51,5.51,0,0,0,.23-.82A7,7,0,0,0,21.6,16.46Zm-1.09,1.6a3,3,0,0,1-1.18,1.39,3.31,3.31,0,0,1-1.71.47,4.14,4.14,0,0,1-.79-.06h0l-.22-.06a3.17,3.17,0,0,1-1.78-1.07,2.8,2.8,0,0,1-.61-1.37,4.29,4.29,0,0,1,0-1.43v-.08c0-.06,0-.11.05-.16a7,7,0,0,1,.48-1.47.06.06,0,0,0,0,0h0l.27-.52a7,7,0,0,1,1.37-1.83,3.37,3.37,0,0,1,1-.7l.39-.13H18a1.41,1.41,0,0,1,.75.15,2.5,2.5,0,0,1,.79.69,5.19,5.19,0,0,1,.71,1.23,8.82,8.82,0,0,1,.52,1.89.19.19,0,0,0,0,.08h0v.14a6.05,6.05,0,0,1,.06,1c0,.21,0,.42,0,.63a.13.13,0,0,0,0,.06h0a.14.14,0,0,0,0,.06A4.8,4.8,0,0,1,20.51,18.06Z"/><path class="cls-3" d="M14.2,15.85c0-.06,0-.11.05-.16a7,7,0,0,1,.48-1.47.06.06,0,0,0,0,0l.27-.52a7,7,0,0,1,1.37-1.83,3.37,3.37,0,0,1,1-.7l.39-.13H18a1.41,1.41,0,0,1,.75.15,2.5,2.5,0,0,1,.79.69,5.19,5.19,0,0,1,.71,1.23,8.82,8.82,0,0,1,.52,1.89.19.19,0,0,0,0,.08v.14a6.05,6.05,0,0,1,.06,1c0,.21,0,.42,0,.63a.13.13,0,0,0,0,.06.14.14,0,0,0,0,.06,4.8,4.8,0,0,1-.3,1.11,3,3,0,0,1-1.18,1.39,3.31,3.31,0,0,1-1.71.47,4.14,4.14,0,0,1-.79-.06h0l-.22-.06a3.17,3.17,0,0,1-1.78-1.07,2.8,2.8,0,0,1-.61-1.37,4.29,4.29,0,0,1,0-1.43Zm3.76,3a.44.44,0,0,0,.16,0l.24-.08a2.76,2.76,0,0,0,.87-.56,3,3,0,0,0,.53-.69c.08-.15.14-.31.21-.48a.37.37,0,0,0-.21-.49.39.39,0,0,0-.49.23,3.22,3.22,0,0,1-.23.5,2.09,2.09,0,0,1-1.14.86.37.37,0,0,0-.26.38A.37.37,0,0,0,18,18.83Z"/><path d="M18,18.83a.37.37,0,0,1-.32-.35.37.37,0,0,1,.26-.38A2.09,2.09,0,0,0,19,17.24a3.22,3.22,0,0,0,.23-.5.39.39,0,0,1,.49-.23A.37.37,0,0,1,20,17c-.07.17-.13.33-.21.48a3,3,0,0,1-.53.69,2.76,2.76,0,0,1-.87.56l-.24.08A.44.44,0,0,1,18,18.83Z"/><path class="cls-4" d="M25.64,17.82a1.74,1.74,0,0,0-1.11-1.57c0-1.91,0-3.82,0-5.72a9.75,9.75,0,0,0-.23-2.08C23.1,3.41,17.66,0,11.8.63A11.83,11.83,0,0,0,5.33,3.26a9.15,9.15,0,0,0-3.58,7.23c0,1.69,0,3.38,0,5.07v.65A1.77,1.77,0,0,0,.56,17.84V30.77a1.91,1.91,0,0,0,2,1.79h21a1.91,1.91,0,0,0,2-1.75ZM14.36,24.58a.19.19,0,0,0-.13.2c0,.86,0,1.72,0,2.58,0,.28-.08.35-.4.35H12.35c-.3,0-.38-.07-.38-.33V26.09h0V24.76a.17.17,0,0,0-.11-.17,2.11,2.11,0,0,1-1.24-2.31,2.39,2.39,0,0,1,2-1.77,2.52,2.52,0,0,1,2.95,1.8A2.11,2.11,0,0,1,14.36,24.58ZM4.59,16V10.44c0-3.36,2.7-6.1,6.69-6.85A9.14,9.14,0,0,1,13,3.42c3.53,0,7.46,2.2,8.35,5.4a5.71,5.71,0,0,1,.21,1.59c0,1.87,0,3.73,0,5.6Z"/></g></g></g></svg>